HIERARCHY
ROOT Hips
{
	OFFSET -0.001795 -0.223333 0.028219
	CHANNELS 6 Xposition Yposition Zposition Zrotation Yrotation Xrotation 
	JOINT LeftUpLeg
	{
		OFFSET 0.069520 -0.091406 -0.006815
		CHANNELS 3 Zrotation Yrotation Xrotation
		JOINT LeftLeg
		{
			OFFSET 0.034277 -0.375199 -0.004496
			CHANNELS 3 Zrotation Yrotation Xrotation
			JOINT LeftFoot
			{
				OFFSET -0.013596 -0.397961 -0.043693
				CHANNELS 3 Zrotation Yrotation Xrotation
				JOINT LeftToe
				{
					OFFSET 0.026358 -0.055791 0.119288
					CHANNELS 3 Zrotation Yrotation Xrotation
					End Site
					{
						OFFSET 0.000000 0.000000 0.000000
					}
				}
			}
		}
	}
	JOINT RightUpLeg
	{
		OFFSET -0.067670 -0.090522 -0.004320
		CHANNELS 3 Zrotation Yrotation Xrotation
		JOINT RightLeg
		{
			OFFSET -0.038290 -0.382569 -0.008850
			CHANNELS 3 Zrotation Yrotation Xrotation
			JOINT RightFoot
			{
				OFFSET 0.015774 -0.398415 -0.042312
				CHANNELS 3 Zrotation Yrotation Xrotation
				JOINT RightToe
				{
					OFFSET -0.025372 -0.048144 0.123348
					CHANNELS 3 Zrotation Yrotation Xrotation
					End Site
					{
						OFFSET 0.000000 0.000000 0.000000
					}
				}
			}
		}
	}
	JOINT Spine
	{
		OFFSET -0.002533 0.108963 -0.026696
		CHANNELS 3 Zrotation Yrotation Xrotation
		JOINT Spine1
		{
			OFFSET 0.005487 0.135180 0.001092
			CHANNELS 3 Zrotation Yrotation Xrotation
			JOINT Spine2
			{
				OFFSET 0.001457 0.052922 0.025425
				CHANNELS 3 Zrotation Yrotation Xrotation
				JOINT Neck
				{
					OFFSET -0.002778 0.213870 -0.042857
					CHANNELS 3 Zrotation Yrotation Xrotation
					JOINT Head
					{
						OFFSET 0.005152 0.064970 0.051349
						CHANNELS 3 Zrotation Yrotation Xrotation
						End Site
						{
							OFFSET 0.000000 0.000000 0.000000
						}
					}
				}
				JOINT LeftShoulder
				{
					OFFSET 0.078845 0.121749 -0.034090
					CHANNELS 3 Zrotation Yrotation Xrotation
					JOINT LeftArm
					{
						OFFSET 0.090977 0.030469 -0.008868
						CHANNELS 3 Zrotation Yrotation Xrotation
						JOINT LeftForeArm
						{
							OFFSET 0.259612 -0.012772 -0.027456
							CHANNELS 3 Zrotation Yrotation Xrotation
							JOINT LeftHand
							{
								OFFSET 0.249234 0.008986 -0.001171
								CHANNELS 3 Zrotation Yrotation Xrotation
								End Site
								{
									OFFSET 0.000000 0.000000 0.000000
								}
							}
						}
					}
				}
				JOINT RightShoulder
				{
					OFFSET -0.081759 0.118833 -0.038615
					CHANNELS 3 Zrotation Yrotation Xrotation
					JOINT RightArm
					{
						OFFSET -0.096012 0.032551 -0.009143
						CHANNELS 3 Zrotation Yrotation Xrotation
						JOINT RightForeArm
						{
							OFFSET -0.253742 -0.013329 -0.021401
							CHANNELS 3 Zrotation Yrotation Xrotation
							JOINT RightHand
							{
								OFFSET -0.255298 0.007772 -0.005559
								CHANNELS 3 Zrotation Yrotation Xrotation
								End Site
								{
									OFFSET 0.000000 0.000000 0.000000
								}
							}
						}
					}
				}
			}
		}
	}
}
MOTION
Frames: 10
Frame Time: 0.050000
0.000000 0.938818 0.000000 0.253652 -0.810295 5.666033 0.940870 -0.338672 -3.768704 0.552524 0.248311 -7.842297 1.196555 5.757429 9.431530 0.000000 0.000000 0.000000 -2.034365 0.477609 -4.818951 -0.726907 -0.028887 -2.236209 -1.858778 -6.466026 4.702027 0.000000 0.000000 0.000000 6.526599 0.361952 -5.570905 -1.608727 0.773777 -1.702850 -3.695791 2.028514 10.430520 7.454496 -3.036209 -17.755577 0.000000 0.000000 0.000000 -19.752003 -8.582859 2.408171 -55.894239 -12.206579 -1.357490 -154.961414 -72.551639 152.197161 0.000000 0.000000 0.000000 14.636661 0.844784 -0.380426 64.486736 11.169181 -0.510627 122.524334 72.449810 113.162058 0.000000 0.000000 0.000000 
-0.001572 0.937560 0.000311 -0.138331 0.031059 6.285718 1.940682 -0.366135 -4.174059 -0.193179 0.295467 -8.488966 0.854120 5.191856 9.267214 0.000000 0.000000 0.000000 -1.492162 0.488313 -4.902126 -0.624668 -0.073942 -3.067489 -2.172670 -7.141541 4.768314 0.000000 0.000000 0.000000 7.503157 0.386896 -5.855441 -1.511024 0.718058 -0.544521 -4.944681 0.848240 8.671702 7.867125 -3.336286 -17.430250 0.000000 0.000000 0.000000 -20.581262 -7.627540 1.924040 -54.794503 -12.031660 -1.261552 -152.740127 -72.824078 149.379003 0.000000 0.000000 0.000000 14.039933 -0.798601 -1.298161 65.968915 9.314896 -1.353401 121.368969 68.171034 106.659134 0.000000 0.000000 0.000000 
-0.003150 0.937814 0.000192 0.482479 -0.034201 5.975400 1.958221 -0.370196 -4.253003 -1.266667 0.313318 -7.741137 0.848198 5.188481 9.312175 0.000000 0.000000 0.000000 -1.902530 0.474996 -4.782806 -0.932476 -0.031939 -2.680084 -2.226143 -7.163672 4.442346 0.000000 0.000000 0.000000 7.296599 0.339235 -5.345379 -1.471760 0.721625 -2.480539 -5.426506 0.784058 10.321162 6.907613 -2.690120 -18.261947 0.000000 0.000000 0.000000 -20.332386 -7.318555 1.856142 -54.478952 -12.516637 -1.219735 -151.144719 -72.776828 147.599483 0.000000 0.000000 0.000000 15.912511 0.163046 -0.933210 64.764670 9.625234 -1.400050 117.207864 68.874866 102.716797 0.000000 0.000000 0.000000 
-0.004826 0.937325 -0.000281 0.616495 0.889476 5.815679 2.111892 -0.389348 -4.523346 -1.534085 0.307189 -7.205324 0.462251 4.520745 9.042639 0.000000 0.000000 0.000000 -1.727795 0.469425 -4.736072 -1.171981 0.010665 -2.251707 -2.661777 -8.011828 4.134540 0.000000 0.000000 0.000000 7.423994 0.343478 -5.399305 -1.161037 0.569991 -1.352542 -5.919871 -0.038841 9.471508 6.632224 -2.631694 -17.493973 0.000000 0.000000 0.000000 -20.807038 -7.666402 2.056783 -54.677122 -12.293852 -1.234727 -151.837590 -72.900677 148.557790 0.000000 0.000000 0.000000 15.463725 -0.065689 -1.081852 65.766807 9.666747 -1.268706 116.436639 68.344124 100.982027 0.000000 0.000000 0.000000 
-0.006497 0.937839 -0.000982 0.789603 0.972569 5.440533 1.744505 -0.377876 -4.346013 -1.021345 0.277665 -6.881128 0.391943 4.441228 9.136630 0.000000 0.000000 0.000000 -1.706201 0.427840 -4.271751 -1.334223 0.016950 -2.407690 -2.666895 -8.041861 4.213034 0.000000 0.000000 0.000000 7.376839 0.295308 -4.849900 -1.147456 0.568425 -1.564745 -5.933475 -0.147210 9.861849 6.370431 -2.505816 -17.409974 0.000000 0.000000 0.000000 -20.623747 -8.479020 2.556139 -54.119871 -12.892915 -1.003866 -150.202333 -74.771844 147.598603 0.000000 0.000000 0.000000 14.968862 0.009254 -1.011858 65.819762 10.299455 -0.945800 111.143443 68.225542 94.880502 0.000000 0.000000 0.000000 
-0.008034 0.938309 -0.001837 0.760873 1.123995 5.235809 1.864741 -0.372932 -4.304512 -0.987674 0.270787 -6.690623 0.296798 4.330093 9.252468 0.000000 0.000000 0.000000 -1.641770 0.423382 -4.231134 -1.182226 0.017760 -2.146867 -2.715689 -8.154238 4.245082 0.000000 0.000000 0.000000 7.413339 0.269311 -4.556196 -1.100585 0.544686 -1.384908 -5.889609 -0.314754 9.883644 5.823922 -2.165011 -17.548035 0.000000 0.000000 0.000000 -20.473426 -8.456367 2.574695 -54.340216 -13.505290 -0.731118 -141.902256 -76.602043 138.549198 0.000000 0.000000 0.000000 14.944671 0.539341 -0.761700 65.888294 10.518868 -0.825589 108.860645 68.831849 92.978313 0.000000 0.000000 0.000000 
-0.009297 0.938331 -0.002784 0.809214 1.189557 5.012794 1.756240 -0.379114 -4.384873 -0.736183 0.246944 -6.235125 0.291311 4.296488 9.158498 0.000000 0.000000 0.000000 -1.602958 0.421277 -4.219863 -1.184318 0.034641 -1.819098 -2.764460 -8.224122 4.105943 0.000000 0.000000 0.000000 7.381575 0.224526 -4.075779 -1.133889 0.561283 -1.425697 -5.970138 -0.356622 10.075360 5.835342 -2.134345 -17.864117 0.000000 0.000000 0.000000 -20.499596 -9.036545 2.905436 -54.282151 -13.999546 -0.521663 -136.118619 -78.483539 133.091767 0.000000 0.000000 0.000000 14.749479 0.777103 -0.625180 66.200578 11.038261 -0.532404 102.689233 69.698919 87.357498 0.000000 0.000000 0.000000 
-0.010341 0.938473 -0.003667 0.859080 1.045340 4.887054 1.655560 -0.381477 -4.410842 -0.540625 0.231366 -6.014075 0.356582 4.410730 9.199098 0.000000 0.000000 0.000000 -1.560844 0.420718 -4.218104 -1.254299 0.045873 -1.715556 -2.711746 -8.101485 4.070751 0.000000 0.000000 0.000000 7.378576 0.209200 -3.886650 -1.285951 0.630378 -1.411471 -5.886427 -0.153937 10.279985 5.670471 -2.025696 -17.884456 0.000000 0.000000 0.000000 -20.450830 -9.487188 3.135029 -54.249193 -15.030761 -0.063696 -127.891746 -80.315422 125.185113 0.000000 0.000000 0.000000 14.905908 1.279872 -0.355006 66.195525 11.990541 0.002440 96.023320 71.098013 82.136953 0.000000 0.000000 0.000000 
-0.011169 0.938287 -0.004304 0.821221 1.209279 4.587889 1.697970 -0.373125 -4.322657 -0.437867 0.216299 -5.696598 0.311795 4.291687 9.028298 0.000000 0.000000 0.000000 -1.353897 0.402748 -4.022815 -1.424946 0.072770 -1.508258 -2.792751 -8.242356 3.937751 0.000000 0.000000 0.000000 7.386744 0.182548 -3.562558 -1.357911 0.663958 -1.375739 -5.842436 -0.004383 10.415990 5.576346 -1.952076 -17.847999 0.000000 0.000000 0.000000 -20.232040 -9.874217 3.287666 -54.011580 -16.056982 0.400912 -122.010017 -81.880152 119.966153 0.000000 0.000000 0.000000 14.942898 1.689316 -0.101434 66.235794 12.823652 0.490141 88.608408 72.405016 76.336596 0.000000 0.000000 0.000000 
-0.011912 0.938565 -0.004757 0.882642 1.435007 4.280950 1.447074 -0.363845 -4.182332 -0.015722 0.184529 -5.446254 0.196543 4.115871 9.029879 0.000000 0.000000 0.000000 -1.180280 0.381166 -3.792532 -1.735208 0.113406 -1.308717 -2.885965 -8.441090 3.926283 0.000000 0.000000 0.000000 7.304018 0.163487 -3.312856 -1.316831 0.647315 -1.422817 -5.986723 0.203787 10.733184 5.754259 -2.027586 -17.855645 0.000000 0.000000 0.000000 -20.198939 -10.634369 3.617178 -53.543885 -17.251195 0.921436 -111.716160 -83.404803 110.268462 0.000000 0.000000 0.000000 15.235142 2.230962 0.239991 66.069758 13.873044 1.074640 81.549524 73.903589 71.366106 0.000000 0.000000 0.000000 
